<mxfile host="app.diagrams.net" modified="2022-12-31T15:26:44.988Z" agent="5.0 (Windows NT 10.0; Win64; x64) AppleWebKit/537.36 (KHTML, like Gecko) Chrome/108.0.0.0 Safari/537.36" etag="4t6ESzFK-W4TorIX60DB" version="20.7.4" type="github">
  <diagram id="R2lEEEUBdFMjLlhIrx00" name="Page-1">
    <mxGraphModel dx="880" dy="494" grid="1" gridSize="10" guides="1" tooltips="1" connect="1" arrows="1" fold="1" page="1" pageScale="1" pageWidth="850" pageHeight="1100" math="0" shadow="0" extFonts="Permanent Marker^https://fonts.googleapis.com/css?family=Permanent+Marker">
      <root>
        <mxCell id="0" />
        <mxCell id="1" parent="0" />
        <mxCell id="DrZjkJ9m2jFni9iIKjsH-20" value="" style="whiteSpace=wrap;html=1;shadow=0;movable=0;resizable=0;rotatable=0;deletable=0;editable=0;connectable=0;" vertex="1" parent="1">
          <mxGeometry x="220" y="100" width="410" height="350" as="geometry" />
        </mxCell>
        <mxCell id="DrZjkJ9m2jFni9iIKjsH-19" value="Employee" style="rounded=0;whiteSpace=wrap;html=1;fillColor=#d5e8d4;strokeColor=#82b366;" vertex="1" parent="1">
          <mxGeometry x="500" y="110" width="120" height="60" as="geometry" />
        </mxCell>
        <mxCell id="DrZjkJ9m2jFni9iIKjsH-21" value="Employee" style="rounded=0;whiteSpace=wrap;html=1;fillColor=#d5e8d4;strokeColor=#82b366;" vertex="1" parent="1">
          <mxGeometry x="500" y="200" width="120" height="60" as="geometry" />
        </mxCell>
        <mxCell id="DrZjkJ9m2jFni9iIKjsH-22" value="Employee" style="rounded=0;whiteSpace=wrap;html=1;fillColor=#d5e8d4;strokeColor=#82b366;" vertex="1" parent="1">
          <mxGeometry x="500" y="290" width="120" height="60" as="geometry" />
        </mxCell>
        <mxCell id="DrZjkJ9m2jFni9iIKjsH-23" value="Employee" style="rounded=0;whiteSpace=wrap;html=1;fillColor=#d5e8d4;strokeColor=#82b366;" vertex="1" parent="1">
          <mxGeometry x="500" y="380" width="120" height="60" as="geometry" />
        </mxCell>
        <mxCell id="DrZjkJ9m2jFni9iIKjsH-24" value="Hystyrix" style="ellipse;whiteSpace=wrap;html=1;shadow=0;fillColor=#fff2cc;strokeColor=#d6b656;" vertex="1" parent="1">
          <mxGeometry x="360" y="240" width="120" height="80" as="geometry" />
        </mxCell>
        <mxCell id="DrZjkJ9m2jFni9iIKjsH-33" style="edgeStyle=none;rounded=0;orthogonalLoop=1;jettySize=auto;html=1;exitX=1;exitY=0.25;exitDx=0;exitDy=0;entryX=0;entryY=0.5;entryDx=0;entryDy=0;" edge="1" parent="1" source="DrZjkJ9m2jFni9iIKjsH-25" target="DrZjkJ9m2jFni9iIKjsH-19">
          <mxGeometry relative="1" as="geometry" />
        </mxCell>
        <mxCell id="DrZjkJ9m2jFni9iIKjsH-34" style="edgeStyle=none;rounded=0;orthogonalLoop=1;jettySize=auto;html=1;exitX=1;exitY=0.25;exitDx=0;exitDy=0;entryX=0;entryY=0.5;entryDx=0;entryDy=0;" edge="1" parent="1" source="DrZjkJ9m2jFni9iIKjsH-25" target="DrZjkJ9m2jFni9iIKjsH-21">
          <mxGeometry relative="1" as="geometry" />
        </mxCell>
        <mxCell id="DrZjkJ9m2jFni9iIKjsH-35" style="edgeStyle=none;rounded=0;orthogonalLoop=1;jettySize=auto;html=1;exitX=1;exitY=0.75;exitDx=0;exitDy=0;entryX=0;entryY=0.5;entryDx=0;entryDy=0;" edge="1" parent="1" source="DrZjkJ9m2jFni9iIKjsH-25" target="DrZjkJ9m2jFni9iIKjsH-22">
          <mxGeometry relative="1" as="geometry" />
        </mxCell>
        <mxCell id="DrZjkJ9m2jFni9iIKjsH-36" style="edgeStyle=none;rounded=0;orthogonalLoop=1;jettySize=auto;html=1;exitX=1;exitY=0.75;exitDx=0;exitDy=0;entryX=0;entryY=0.5;entryDx=0;entryDy=0;" edge="1" parent="1" source="DrZjkJ9m2jFni9iIKjsH-25" target="DrZjkJ9m2jFni9iIKjsH-23">
          <mxGeometry relative="1" as="geometry" />
        </mxCell>
        <mxCell id="DrZjkJ9m2jFni9iIKjsH-25" value="A&lt;br&gt;P&lt;br&gt;I&lt;br&gt;&amp;nbsp;&lt;br&gt;G&lt;br&gt;A&lt;br&gt;T&lt;br&gt;E&lt;br&gt;W&lt;br&gt;A&lt;br&gt;Y" style="whiteSpace=wrap;html=1;shadow=0;fillColor=#dae8fc;strokeColor=#6c8ebf;" vertex="1" parent="1">
          <mxGeometry x="240" y="110" width="90" height="330" as="geometry" />
        </mxCell>
        <mxCell id="DrZjkJ9m2jFni9iIKjsH-32" style="edgeStyle=none;rounded=0;orthogonalLoop=1;jettySize=auto;html=1;entryX=0;entryY=0.5;entryDx=0;entryDy=0;" edge="1" parent="1" source="DrZjkJ9m2jFni9iIKjsH-26" target="DrZjkJ9m2jFni9iIKjsH-25">
          <mxGeometry relative="1" as="geometry" />
        </mxCell>
        <mxCell id="DrZjkJ9m2jFni9iIKjsH-26" value="Client" style="shape=umlActor;verticalLabelPosition=bottom;verticalAlign=top;html=1;outlineConnect=0;shadow=0;fillColor=#f5f5f5;strokeColor=#666666;fontColor=#333333;" vertex="1" parent="1">
          <mxGeometry x="70" y="240" width="30" height="60" as="geometry" />
        </mxCell>
      </root>
    </mxGraphModel>
  </diagram>
</mxfile>
